<svg width="17" height="17" viewBox="0 0 17 17" fill="none" xmlns="http://www.w3.org/2000/svg">
<path d="M14.5082 13.5209L3.4763 2.489C3.34532 2.35801 3.16766 2.28443 2.98242 2.28443C2.79718 2.28443 2.61953 2.35801 2.48854 2.489C2.35756 2.61998 2.28397 2.79764 2.28397 2.98288C2.28397 3.16812 2.35756 3.34578 2.48854 3.47676L13.5204 14.5086C13.6514 14.6396 13.8291 14.7132 14.0143 14.7132C14.1996 14.7132 14.3772 14.6396 14.5082 14.5086C14.6392 14.3777 14.7128 14.2 14.7128 14.0148C14.7128 13.8295 14.6392 13.6519 14.5082 13.5209Z" fill="#333333"/>
<path d="M3.47618 14.5092L14.5081 3.47728C14.6391 3.34629 14.7126 3.16864 14.7126 2.9834C14.7126 2.79816 14.6391 2.6205 14.5081 2.48952C14.3771 2.35853 14.1994 2.28495 14.0142 2.28495C13.8289 2.28495 13.6513 2.35853 13.5203 2.48952L2.48842 13.5214C2.35743 13.6524 2.28385 13.83 2.28385 14.0153C2.28385 14.2005 2.35743 14.3782 2.48842 14.5092C2.6194 14.6402 2.79706 14.7137 2.9823 14.7137C3.16754 14.7137 3.3452 14.6402 3.47618 14.5092Z" fill="#333333"/>
</svg>
