<svg width="145" height="43" viewBox="0 0 145 43" fill="none" xmlns="http://www.w3.org/2000/svg">
<path d="M41.836 6.2658L37.3322 1.88049C36.1265 0.706504 34.1723 0.706504 32.9666 1.88049L26.2121 8.45723C25.3681 9.27902 25.3681 10.6095 26.2121 11.4289L32.0271 17.0933C32.8711 17.9151 34.2376 17.9151 35.0791 17.0933L41.8335 10.5166C43.0417 9.34261 43.0417 7.43978 41.836 6.2658Z" fill="url(#paint0_linear_249_266)"/>
<path opacity="0.8" d="M16.6259 12.67C16.6259 15.1256 15.7995 17.3929 14.4029 19.2248L12.1447 21.4235L0.796012 10.3734C-0.0504935 9.54919 -0.0504935 8.21378 0.796012 7.38955L6.60098 1.73732C7.44748 0.913082 8.81897 0.913082 9.66548 1.73732L14.9153 6.84903C16.0005 8.53663 16.6259 10.5324 16.6259 12.67Z" fill="url(#paint1_linear_249_266)"/>
<path opacity="0.8" d="M41.1616 32.4065C42.0458 33.2675 42.0458 34.6616 41.1616 35.5225L35.4898 41.0451C34.6056 41.906 33.1738 41.906 32.2897 41.0451L21.0088 30.061L23.3725 27.7595C23.6789 27.5467 23.9954 27.3486 24.322 27.1676C25.9748 26.2456 27.8863 25.7197 29.9285 25.7197C32.2344 25.7197 34.3796 26.3923 36.168 27.5492L41.1616 32.4065Z" fill="url(#paint2_linear_249_266)"/>
<path d="M29.8808 21.4241L21.0113 12.788L14.9124 6.84961C15.9976 8.53721 16.623 10.533 16.623 12.6706C16.623 12.8076 16.6205 12.9421 16.6155 13.0791C16.515 15.7988 15.2867 18.362 13.3099 20.2868L12.1393 21.4266L12.0514 21.5122L0.521844 32.7384C-0.173948 33.4158 -0.173948 34.514 0.521844 35.189L6.87189 41.3745C7.56768 42.052 8.69552 42.052 9.3888 41.3745L20.7224 30.339L21.0088 30.0602L22.8852 28.2332C23.3097 27.8199 23.7894 27.4628 24.3119 27.1717L24.322 27.1668C25.9748 26.2448 27.8863 25.7189 29.9285 25.7189C32.2344 25.7189 34.3795 26.3915 36.168 27.5484L29.8808 21.4241Z" fill="white"/>
<g clip-path="url(#clip0_249_266)">
<path d="M135.298 39C133.513 39 131.904 38.5623 130.471 37.6891C129.023 36.8159 127.857 35.6378 126.971 34.1615C126.102 32.6829 125.668 31.0301 125.668 29.2031V13.7272C125.668 11.9459 126.111 10.3258 126.995 8.8625C127.863 7.38394 129.029 6.20805 130.495 5.33485C131.961 4.44422 133.561 4 135.298 4C137.116 4 138.756 4.42898 140.222 5.28694C141.686 6.16014 142.845 7.3295 143.698 8.79282C144.567 10.2561 145.001 11.9002 145.001 13.7272V15.9679C145.001 16.0942 144.919 16.1595 144.761 16.1595H139.21C139.083 16.1595 139.016 16.0964 139.016 15.9679V14.1083C139.016 12.8692 138.662 11.8436 137.954 11.0335C137.247 10.2235 136.36 9.81845 135.3 9.81845C134.35 9.81845 133.506 10.2082 132.765 10.9878C132.025 11.7674 131.655 12.6798 131.655 13.7294V29.2031C131.655 30.268 132.016 31.1891 132.741 31.9686C133.464 32.7308 134.317 33.114 135.3 33.114C136.363 33.114 137.247 32.7395 137.954 31.9926C138.662 31.2305 139.016 30.3006 139.016 29.2031V26.7947H135.565C135.388 26.7947 135.3 26.7164 135.3 26.5574V23.1756C135.302 21.0874 137.286 20.8565 137.947 20.8565H144.807C144.935 20.8565 145.001 20.9349 145.001 21.0939V29.201C145.001 31.0279 144.567 32.6829 143.698 34.1593C142.814 35.6378 141.646 36.8137 140.198 37.6869C138.75 38.5645 137.116 39 135.298 39Z" fill="white"/>
<path d="M108.701 38.5232H103.752C103.494 38.5232 103.367 38.4121 103.367 38.19L103.32 4.9299C103.32 4.67513 103.448 4.54883 103.706 4.54883H108.172L116.521 23.7898L116.279 4.9299C116.279 4.67513 116.424 4.54883 116.713 4.54883H121.613C121.807 4.54883 121.902 4.67513 121.902 4.9299L121.95 38.2379C121.95 38.4296 121.871 38.5232 121.71 38.5232H117.365L108.798 20.5452L109.159 38.1399C109.159 38.3969 109.007 38.5232 108.701 38.5232Z" fill="white"/>
<path d="M83.6994 38.5232H78.1251C77.9796 38.5232 77.9069 38.4426 77.9069 38.2858V10.437H71.4883C71.3274 10.437 71.248 10.3586 71.248 10.1996L71.2965 4.74045C71.2965 4.61416 71.3605 4.54883 71.4905 4.54883H90.2657C90.442 4.54883 90.5302 4.61198 90.5302 4.74045V10.1996C90.5302 10.3586 90.4663 10.437 90.3362 10.437H83.8449L83.8934 38.2858C83.8934 38.4448 83.8295 38.5232 83.6994 38.5232Z" fill="white"/>
<path d="M55.57 38.5081H50.3813C50.1719 38.5081 50 38.3404 50 38.1314V4.9148C50 4.70794 50.1697 4.53809 50.3813 4.53809H55.57C55.7816 4.53809 55.9513 4.70794 55.9513 4.9148V38.1314C55.9513 38.3404 55.7816 38.5081 55.57 38.5081Z" fill="white"/>
<path d="M99.4332 38.5081H94.2446C94.0352 38.5081 93.8633 38.3404 93.8633 38.1314V4.9148C93.8633 4.70794 94.033 4.53809 94.2446 4.53809H99.4332C99.6426 4.53809 99.8146 4.70576 99.8146 4.9148V38.1314C99.8146 38.3404 99.6448 38.5081 99.4332 38.5081Z" fill="white"/>
</g>
<defs>
<linearGradient id="paint0_linear_249_266" x1="34.1595" y1="1" x2="34.1595" y2="17.7097" gradientUnits="userSpaceOnUse">
<stop stop-color="#0C75F0"/>
<stop offset="1" stop-color="#30A8FF"/>
</linearGradient>
<linearGradient id="paint1_linear_249_266" x1="5.27538" y1="1.02957" x2="18.4641" y2="15.4741" gradientUnits="userSpaceOnUse">
<stop stop-color="white"/>
<stop offset="1" stop-color="white" stop-opacity="0.56"/>
</linearGradient>
<linearGradient id="paint2_linear_249_266" x1="27.4746" y1="25.6493" x2="36.4222" y2="41.4002" gradientUnits="userSpaceOnUse">
<stop stop-color="white" stop-opacity="0.56"/>
<stop offset="1" stop-color="white"/>
</linearGradient>
<clipPath id="clip0_249_266">
<rect width="95" height="35" fill="white" transform="translate(50 4)"/>
</clipPath>
</defs>
</svg>
