<svg width="346" height="346" viewBox="0 0 346 346" fill="none" xmlns="http://www.w3.org/2000/svg">
  <g>
    <animateTransform
      attributeName="transform"
      attributeType="XML"
      type="rotate"
      from="0 173 173"
      to="360 173 173"
      dur="20s"
      repeatCount="indefinite"
    />

    <path opacity="0.26"
      d="M169.791 218.888C157.621 218.037 146.287 212.386 138.283 203.179C130.279 193.971 126.261 181.961 127.112 169.791C127.963 157.621 133.614 146.287 142.821 138.283C152.029 130.279 164.039 126.261 176.209 127.112C188.379 127.963 199.713 133.614 207.717 142.821C215.721 152.029 219.739 164.039 218.888 176.209C218.037 188.379 212.386 199.713 203.179 207.717C193.971 215.721 181.961 219.739 169.791 218.888L169.791 218.888Z"
      stroke="#BBBED7" />
    <path opacity="0.4"
      d="M168.817 220.817C162.537 220.268 156.427 218.487 150.836 215.577C145.245 212.666 140.282 208.683 136.23 203.854C132.178 199.025 129.117 193.446 127.222 187.434C125.326 181.422 124.633 175.096 125.183 168.817C125.732 162.537 127.513 156.427 130.423 150.836C133.334 145.245 137.317 140.282 142.146 136.23C146.975 132.178 152.554 129.117 158.566 127.222C164.578 125.326 170.904 124.633 177.183 125.183C183.463 125.732 189.573 127.513 195.164 130.423C200.755 133.334 205.718 137.317 209.77 142.146C213.822 146.975 216.883 152.554 218.778 158.566C220.674 164.578 221.367 170.904 220.817 177.183C220.268 183.463 218.487 189.573 215.577 195.164C212.666 200.755 208.683 205.718 203.854 209.77C199.025 213.822 193.446 216.883 187.434 218.778C181.422 220.674 175.096 221.367 168.817 220.817L168.817 220.817Z"
      stroke="#BBBED7" />
    <path opacity="0.06"
      d="M166.041 222.513C159.539 221.6 153.281 219.414 147.623 216.081C141.966 212.749 137.02 208.335 133.068 203.091C129.117 197.847 126.237 191.876 124.593 185.519C122.949 179.162 122.573 172.544 123.487 166.041C124.4 159.539 126.586 153.281 129.919 147.623C133.251 141.966 137.665 137.02 142.909 133.068C148.153 129.117 154.124 126.237 160.481 124.593C166.838 122.949 173.456 122.573 179.959 123.487C186.461 124.4 192.719 126.586 198.377 129.919C204.034 133.251 208.98 137.665 212.932 142.909C216.883 148.153 219.763 154.124 221.407 160.481C223.051 166.838 223.427 173.456 222.513 179.959C221.6 186.461 219.414 192.719 216.081 198.377C212.749 204.034 208.335 208.98 203.091 212.932C197.847 216.883 191.876 219.763 185.519 221.407C179.162 223.051 172.544 223.427 166.041 222.513L166.041 222.513Z"
      stroke="#BBBED7" />
    <path opacity="0.24"
      d="M164.865 224.36C158.121 223.292 151.653 220.905 145.83 217.337C140.008 213.769 134.945 209.089 130.931 203.565C126.917 198.04 124.031 191.779 122.437 185.139C120.843 178.499 120.572 171.61 121.64 164.865C122.708 158.121 125.095 151.653 128.663 145.83C132.231 140.008 136.911 134.945 142.435 130.931C147.96 126.917 154.221 124.031 160.861 122.437C167.501 120.843 174.39 120.572 181.135 121.64C187.879 122.708 194.347 125.095 200.17 128.663C205.992 132.231 211.055 136.911 215.069 142.435C219.083 147.96 221.969 154.221 223.563 160.861C225.157 167.501 225.428 174.39 224.36 181.135C223.292 187.879 220.905 194.347 217.337 200.17C213.769 205.992 209.089 211.055 203.565 215.069C198.04 219.083 191.779 221.969 185.139 223.563C178.499 225.157 171.61 225.428 164.865 224.36L164.865 224.36Z"
      stroke="#BBBED7" />
    <path opacity="0.4"
      d="M161.773 225.82C154.836 224.346 148.258 221.519 142.414 217.503C136.57 213.486 131.574 208.358 127.712 202.411C123.85 196.463 121.197 189.813 119.904 182.841C118.612 175.868 118.706 168.709 120.18 161.773C121.654 154.836 124.481 148.258 128.497 142.414C132.514 136.57 137.642 131.574 143.589 127.712C149.537 123.85 156.187 121.197 163.159 119.904C170.132 118.612 177.291 118.706 184.227 120.18C191.164 121.654 197.742 124.481 203.586 128.497C209.43 132.514 214.426 137.642 218.288 143.589C222.15 149.537 224.803 156.187 226.096 163.159C227.388 170.132 227.294 177.291 225.82 184.227C224.346 191.164 221.519 197.742 217.503 203.586C213.486 209.43 208.358 214.426 202.411 218.288C196.463 222.15 189.813 224.803 182.841 226.096C175.868 227.388 168.709 227.294 161.773 225.82L161.773 225.82Z"
      stroke="#BBBED7" />
    <path opacity="0.05"
      d="M153.847 225.623C146.936 223.108 140.589 219.256 135.167 214.288C129.745 209.319 125.355 203.332 122.247 196.667C119.139 190.002 117.374 182.79 117.053 175.443C116.733 168.096 117.862 160.757 120.377 153.847C122.892 146.936 126.744 140.589 131.712 135.167C136.681 129.745 142.668 125.355 149.333 122.247C155.998 119.139 163.21 117.374 170.557 117.053C177.904 116.733 185.243 117.862 192.153 120.377C199.064 122.892 205.411 126.744 210.833 131.712C216.255 136.681 220.645 142.668 223.753 149.333C226.861 155.998 228.626 163.21 228.947 170.557C229.267 177.904 228.138 185.243 225.623 192.153C223.108 199.064 219.256 205.411 214.288 210.833C209.319 216.255 203.332 220.645 196.667 223.753C190.002 226.861 182.79 228.626 175.443 228.947C168.096 229.267 160.757 228.138 153.847 225.623L153.847 225.623Z"
      stroke="#BBBED7" />
    <path opacity="0.58"
      d="M145.771 224.211C139.046 220.635 133.091 215.77 128.246 209.893C123.401 204.015 119.761 197.241 117.534 189.958C115.307 182.674 114.537 175.023 115.267 167.441C115.997 159.859 118.213 152.496 121.789 145.771C125.365 139.046 130.23 133.091 136.107 128.246C141.985 123.401 148.759 119.761 156.042 117.534C163.326 115.307 170.977 114.537 178.559 115.267C186.141 115.997 193.504 118.213 200.229 121.789C206.954 125.365 212.909 130.23 217.754 136.107C222.599 141.985 226.239 148.759 228.466 156.042C230.693 163.326 231.463 170.977 230.733 178.559C230.003 186.141 227.787 193.504 224.211 200.229C220.635 206.954 215.77 212.909 209.893 217.754C204.015 222.599 197.241 226.239 189.958 228.466C182.674 230.693 175.023 231.463 167.441 230.733C159.859 230.003 152.496 227.787 145.771 224.211L145.771 224.211Z"
      stroke="#BBBED7" />
    <path opacity="0.23"
      d="M143.911 225.477C137.02 221.657 130.949 216.517 126.044 210.351C121.139 204.184 117.496 197.112 115.324 189.538C113.152 181.964 112.494 174.036 113.386 166.208C114.278 158.379 116.703 150.803 120.523 143.911C124.343 137.02 129.483 130.948 135.649 126.044C141.816 121.139 148.888 117.496 156.462 115.324C164.036 113.152 171.964 112.494 179.792 113.386C187.621 114.278 195.197 116.703 202.089 120.523C208.98 124.343 215.052 129.483 219.956 135.649C224.861 141.816 228.504 148.888 230.676 156.462C232.848 164.036 233.506 171.964 232.614 179.792C231.722 187.621 229.297 195.197 225.477 202.089C221.657 208.98 216.517 215.052 210.351 219.956C204.184 224.861 197.112 228.504 189.538 230.676C181.964 232.848 174.036 233.506 166.208 232.614C158.379 231.722 150.803 229.297 143.911 225.477L143.911 225.477Z"
      stroke="#BBBED7" />
    <path opacity="0.01"
      d="M140.145 225.579C126.2 216.865 116.288 202.969 112.589 186.947C108.89 170.925 111.707 154.09 120.421 140.145C129.135 126.2 143.031 116.288 159.053 112.589C175.075 108.89 191.91 111.707 205.855 120.421C219.8 129.135 229.712 143.031 233.411 159.053C237.11 175.075 234.293 191.91 225.579 205.855C216.865 219.8 202.969 229.712 186.947 233.411C170.925 237.11 154.09 234.293 140.145 225.579L140.145 225.579Z"
      stroke="#BBBED7" />
    <path opacity="0.59"
      d="M136.291 225.426C129.406 220.605 123.539 214.476 119.023 207.387C114.507 200.299 111.432 192.39 109.972 184.113C108.513 175.837 108.698 167.353 110.517 159.148C112.336 150.942 115.754 143.176 120.574 136.291C125.395 129.406 131.524 123.539 138.613 119.023C145.701 114.507 153.61 111.432 161.887 109.972C170.163 108.513 178.647 108.698 186.852 110.517C195.058 112.336 202.824 115.754 209.709 120.574C216.594 125.395 222.461 131.524 226.977 138.613C231.493 145.701 234.568 153.61 236.028 161.887C237.487 170.163 237.302 178.647 235.483 186.852C233.664 195.058 230.246 202.824 225.426 209.709C220.605 216.594 214.476 222.461 207.387 226.977C200.299 231.493 192.39 234.568 184.113 236.028C175.837 237.487 167.353 237.302 159.148 235.483C150.942 233.664 143.176 230.246 136.291 225.426L136.291 225.426Z"
      stroke="#BBBED7" />
    <path opacity="0.55"
      d="M123.189 216.3C117.503 209.759 113.161 202.161 110.411 193.942C107.66 185.723 106.556 177.042 107.161 168.396C107.765 159.75 110.067 151.308 113.934 143.551C117.802 135.794 123.159 128.875 129.7 123.189C136.241 117.503 143.839 113.161 152.058 110.411C160.277 107.66 168.958 106.556 177.604 107.161C186.25 107.765 194.692 110.067 202.449 113.934C210.206 117.802 217.125 123.159 222.811 129.7C228.497 136.241 232.839 143.839 235.589 152.058C238.34 160.277 239.444 168.958 238.839 177.604C238.235 186.25 235.933 194.692 232.066 202.449C228.198 210.206 222.841 217.125 216.3 222.811C209.759 228.497 202.161 232.839 193.942 235.589C185.723 238.34 177.042 239.444 168.396 238.839C159.75 238.235 151.308 235.933 143.551 232.066C135.794 228.198 128.875 222.841 123.189 216.3L123.189 216.3Z"
      stroke="#BBBED7" />
    <path opacity="0.25"
      d="M119.415 214.865C108.312 200.653 103.309 182.613 105.507 164.713C107.705 146.813 116.923 130.519 131.135 119.415C145.347 108.312 163.387 103.309 181.287 105.507C199.187 107.705 215.481 116.923 226.585 131.135C237.688 145.347 242.691 163.387 240.493 181.287C238.295 199.187 229.077 215.481 214.865 226.585C200.653 237.688 182.613 242.691 164.713 240.493C146.813 238.295 130.519 229.077 119.415 214.865L119.415 214.865Z"
      stroke="#BBBED7" />
    <path opacity="0.16"
      d="M116.369 214.145C105.456 199.125 100.958 180.386 103.862 162.05C106.766 143.713 116.836 127.281 131.855 116.369C146.875 105.456 165.614 100.958 183.95 103.862C202.287 106.766 218.719 116.836 229.631 131.855C240.544 146.875 245.042 165.614 242.138 183.95C239.234 202.287 229.164 218.719 214.145 229.631C199.125 240.544 180.386 245.042 162.05 242.138C143.713 239.234 127.281 229.165 116.369 214.145L116.369 214.145Z"
      stroke="#BBBED7" />
    <path opacity="0.04"
      d="M114.751 215.321C103.527 199.872 98.8992 180.597 101.886 161.737C104.874 142.876 115.231 125.975 130.679 114.751C146.128 103.527 165.403 98.8992 184.263 101.886C203.124 104.874 220.025 115.231 231.249 130.679C242.473 146.128 247.101 165.403 244.114 184.263C241.126 203.124 230.769 220.025 215.321 231.249C199.872 242.473 180.597 247.101 161.737 244.114C142.876 241.126 125.975 230.769 114.751 215.321L114.751 215.321Z"
      stroke="#BBBED7" />
    <path opacity="0.5"
      d="M112.383 215.445C106.809 207.484 102.857 198.504 100.754 189.017C98.6508 179.529 98.4367 169.72 100.124 160.15C101.812 150.58 105.368 141.436 110.589 133.24C115.81 125.044 122.595 117.957 130.555 112.383C138.516 106.809 147.496 102.857 156.983 100.754C166.471 98.6508 176.28 98.4367 185.85 100.124C195.42 101.812 204.564 105.368 212.76 110.589C220.956 115.81 228.043 122.595 233.617 130.555C239.191 138.516 243.143 147.496 245.246 156.983C247.349 166.471 247.563 176.28 245.876 185.85C244.188 195.42 240.632 204.564 235.411 212.76C230.19 220.956 223.405 228.043 215.445 233.617C207.484 239.191 198.504 243.143 189.016 245.246C179.529 247.349 169.72 247.563 160.15 245.876C150.58 244.188 141.436 240.632 133.24 235.411C125.044 230.19 117.957 223.405 112.383 215.445L112.383 215.445Z"
      stroke="#BBBED7" />
    <path opacity="0.24"
      d="M108.548 213.274C103.26 204.81 99.6895 195.387 98.0423 185.544C96.395 175.7 96.7028 165.628 98.9479 155.904C101.193 146.179 105.332 136.992 111.127 128.867C116.923 120.741 124.262 113.837 132.726 108.548C141.19 103.26 150.613 99.6895 160.456 98.0423C170.3 96.395 180.372 96.7028 190.096 98.9479C199.821 101.193 209.008 105.332 217.133 111.127C225.259 116.923 232.163 124.262 237.452 132.726C242.74 141.19 246.31 150.613 247.958 160.456C249.605 170.3 249.297 180.372 247.052 190.096C244.807 199.821 240.668 209.008 234.873 217.133C229.077 225.259 221.738 232.163 213.274 237.452C204.81 242.741 195.387 246.31 185.544 247.958C175.7 249.605 165.628 249.297 155.904 247.052C146.179 244.807 136.992 240.668 128.867 234.873C120.741 229.077 113.837 221.738 108.548 213.274L108.548 213.274Z"
      stroke="#BBBED7" />
    <path opacity="0.01"
      d="M102.894 207.193C98.4038 197.987 95.7708 187.986 95.1455 177.762C94.5202 167.538 95.9147 157.291 99.2496 147.606C102.584 137.921 107.794 128.987 114.581 121.316C121.369 113.644 129.601 107.384 138.807 102.894C148.014 98.4038 158.014 95.7708 168.238 95.1455C178.462 94.5202 188.709 95.9147 198.394 99.2496C208.079 102.584 217.013 107.794 224.684 114.581C232.356 121.369 238.616 129.601 243.106 138.807C247.596 148.014 250.229 158.014 250.855 168.238C251.48 178.462 250.085 188.709 246.75 198.394C243.416 208.079 238.206 217.013 231.419 224.684C224.631 232.356 216.399 238.616 207.193 243.106C197.986 247.596 187.986 250.229 177.762 250.855C167.538 251.48 157.291 250.085 147.606 246.75C137.921 243.416 128.987 238.206 121.316 231.419C113.644 224.631 107.384 216.399 102.894 207.193L102.894 207.193Z"
      stroke="#BBBED7" />
    <path opacity="0.42"
      d="M96.9155 197.721C90.359 177.542 92.087 155.586 101.719 136.681C111.352 117.776 128.1 103.472 148.279 96.9155C168.458 90.359 190.414 92.087 209.319 101.719C228.224 111.352 242.528 128.1 249.085 148.279C255.641 168.458 253.913 190.414 244.281 209.319C234.648 228.224 217.9 242.528 197.721 249.085C177.542 255.641 155.586 253.913 136.681 244.281C117.776 234.648 103.472 217.9 96.9155 197.721L96.9155 197.721Z"
      stroke="#BBBED7" />
    <path opacity="0.16"
      d="M92.2458 187.239C90.3759 176.634 90.613 165.765 92.9437 155.252C95.2744 144.739 99.653 134.788 105.83 125.967C112.006 117.146 119.859 109.628 128.941 103.842C138.023 98.0561 148.156 94.1157 158.761 92.2458C169.366 90.3759 180.235 90.613 190.748 92.9437C201.261 95.2744 211.212 99.653 220.033 105.83C228.854 112.006 236.372 119.859 242.158 128.941C247.944 138.023 251.884 148.156 253.754 158.761C255.624 169.366 255.387 180.235 253.056 190.748C250.726 201.261 246.347 211.212 240.17 220.033C233.994 228.854 226.141 236.372 217.059 242.158C207.977 247.944 197.844 251.884 187.239 253.754C176.634 255.624 165.765 255.387 155.252 253.056C144.739 250.726 134.788 246.347 125.967 240.17C117.146 233.994 109.628 226.141 103.842 217.059C98.056 207.977 94.1157 197.844 92.2458 187.239L92.2458 187.239Z"
      stroke="#BBBED7" />
    <path opacity="0.19"
      d="M89.6261 183.237C86.9111 161.125 93.0913 138.84 106.807 121.284C120.523 103.729 140.651 92.3412 162.763 89.6261C184.875 86.9111 207.16 93.0913 224.716 106.807C242.271 120.523 253.659 140.651 256.374 162.763C259.089 184.875 252.909 207.16 239.193 224.716C225.477 242.271 205.349 253.659 183.237 256.374C161.125 259.089 138.84 252.909 121.284 239.193C103.729 225.477 92.3412 205.349 89.6261 183.237L89.6261 183.237Z"
      stroke="#BBBED7" />
    <path opacity="0.47"
      d="M87.4711 181.989C86.2906 170.758 87.3339 159.403 90.5415 148.575C93.7491 137.746 99.0581 127.655 106.165 118.878C113.273 110.102 122.039 102.811 131.964 97.4217C141.889 92.0328 152.779 88.6516 164.011 87.4711C175.242 86.2906 186.597 87.3339 197.425 90.5415C208.254 93.7491 218.345 99.0581 227.122 106.165C235.898 113.273 243.189 122.039 248.578 131.964C253.967 141.889 257.348 152.779 258.529 164.011C259.709 175.242 258.666 186.597 255.458 197.425C252.251 208.254 246.942 218.345 239.835 227.122C232.727 235.898 223.961 243.189 214.036 248.578C204.111 253.967 193.221 257.348 181.989 258.529C170.758 259.709 159.403 258.666 148.575 255.458C137.746 252.251 127.655 246.942 118.878 239.835C110.102 232.727 102.811 223.961 97.4217 214.036C92.0328 204.111 88.6516 193.221 87.4711 181.989L87.4711 181.989Z"
      stroke="#BBBED7" />
    <path opacity="0.45"
      d="M85.2144 179.139C84.4082 167.61 85.8806 156.036 89.5475 145.077C93.2144 134.118 99.0039 123.988 106.586 115.267C114.167 106.545 123.392 99.4022 133.735 94.2458C144.077 89.0894 155.333 86.0205 166.861 85.2144C178.39 84.4082 189.964 85.8806 200.923 89.5475C211.882 93.2144 222.012 99.0039 230.733 106.586C239.455 114.167 246.598 123.392 251.754 133.735C256.911 144.077 259.98 155.333 260.786 166.861C261.592 178.39 260.119 189.964 256.452 200.923C252.786 211.882 246.996 222.012 239.414 230.733C231.833 239.455 222.608 246.598 212.265 251.754C201.923 256.911 190.667 259.98 179.139 260.786C167.61 261.592 156.036 260.119 145.077 256.452C134.118 252.786 123.988 246.996 115.267 239.414C106.545 231.833 99.4022 222.608 94.2458 212.265C89.0894 201.923 86.0205 190.667 85.2144 179.139L85.2144 179.139Z"
      stroke="#BBBED7" />
    <path opacity="0.03"
      d="M83.1233 177.71C82.5048 165.907 84.217 154.098 88.1623 142.957C92.1075 131.816 98.2085 121.561 106.117 112.778C114.025 103.995 123.586 96.8555 134.254 91.7673C144.922 86.6791 156.487 83.7419 168.29 83.1233C180.093 82.5048 191.902 84.217 203.043 88.1623C214.184 92.1075 224.439 98.2085 233.222 106.117C242.005 114.025 249.144 123.586 254.233 134.254C259.321 144.922 262.258 156.487 262.877 168.29C263.495 180.093 261.783 191.902 257.838 203.043C253.892 214.184 247.791 224.439 239.883 233.222C231.975 242.005 222.414 249.144 211.746 254.233C201.078 259.321 189.513 262.258 177.71 262.877C165.907 263.495 154.098 261.783 142.957 257.838C131.816 253.892 121.561 247.791 112.778 239.883C103.995 231.975 96.8555 222.414 91.7673 211.746C86.6791 201.078 83.7419 189.513 83.1233 177.71L83.1233 177.71Z"
      stroke="#BBBED7" />
    <path opacity="0.18"
      d="M81.014 174.606C80.8032 162.526 82.9737 150.523 87.4016 139.282C91.8295 128.041 98.4281 117.782 106.821 109.091C115.213 100.401 125.236 93.448 136.315 88.6305C147.395 83.8129 159.315 81.2249 171.394 81.014C183.474 80.8032 195.477 82.9737 206.718 87.4016C217.959 91.8295 228.218 98.4281 236.909 106.821C245.599 115.213 252.552 125.236 257.37 136.315C262.187 147.395 264.775 159.315 264.986 171.394C265.197 183.474 263.026 195.477 258.598 206.718C254.17 217.959 247.572 228.218 239.179 236.909C230.787 245.599 220.764 252.552 209.685 257.37C198.605 262.187 186.685 264.775 174.606 264.986C162.526 265.197 150.523 263.026 139.282 258.598C128.041 254.17 117.782 247.572 109.091 239.179C100.401 230.787 93.448 220.764 88.6305 209.685C83.8129 198.605 81.2249 186.685 81.014 174.606L81.014 174.606Z"
      stroke="#BBBED7" />
    <path opacity="0.52"
      d="M79.5149 163.174C80.8053 150.898 84.501 138.995 90.3912 128.147C96.2814 117.299 104.251 107.717 113.844 99.9483C123.437 92.1798 134.467 86.3769 146.303 82.8709C158.138 79.365 170.549 78.2246 182.826 79.5149C195.102 80.8053 207.005 84.501 217.853 90.3912C228.701 96.2814 238.283 104.251 246.052 113.844C253.82 123.437 259.623 134.467 263.129 146.303C266.635 158.138 267.775 170.549 266.485 182.826C265.195 195.102 261.499 207.005 255.609 217.853C249.719 228.701 241.749 238.283 232.156 246.052C222.563 253.82 211.533 259.623 199.697 263.129C187.862 266.635 175.451 267.775 163.174 266.485C150.898 265.195 138.995 261.499 128.147 255.609C117.299 249.719 107.717 241.749 99.9483 232.156C92.1798 222.563 86.3769 211.533 82.8709 199.697C79.365 187.861 78.2246 175.451 79.5149 163.174L79.5149 163.174Z"
      stroke="#BBBED7" />
    <path opacity="0.52"
      d="M78.7638 154.682C83.6219 129.689 98.2095 107.65 119.317 93.4124C140.425 79.1749 166.325 73.9056 191.318 78.7638C216.311 83.6219 238.35 98.2095 252.588 119.317C266.825 140.425 272.094 166.325 267.236 191.318C262.378 216.311 247.79 238.35 226.683 252.588C205.575 266.825 179.675 272.094 154.682 267.236C129.689 262.378 107.65 247.79 93.4124 226.683C79.1749 205.575 73.9056 179.675 78.7638 154.682L78.7638 154.682Z"
      stroke="#BBBED7" />
    <path opacity="0.42"
      d="M78.7964 145.988C82.3437 133.617 88.2929 122.065 96.3044 111.994C104.316 101.922 114.233 93.5265 125.489 87.2873C136.745 81.048 149.119 77.0868 161.906 75.63C174.693 74.1731 187.641 75.249 200.012 78.7964C212.383 82.3437 223.935 88.2929 234.006 96.3044C244.078 104.316 252.473 114.233 258.713 125.489C264.952 136.745 268.913 149.119 270.37 161.906C271.827 174.693 270.751 187.641 267.204 200.012C263.656 212.383 257.707 223.935 249.696 234.006C241.684 244.078 231.767 252.473 220.511 258.713C209.255 264.952 196.881 268.913 184.094 270.37C171.307 271.827 158.359 270.751 145.988 267.204C133.617 263.656 122.065 257.707 111.994 249.696C101.922 241.684 93.5265 231.767 87.2873 220.511C81.048 209.255 77.0868 196.881 75.63 184.094C74.1731 171.307 75.249 158.359 78.7964 145.988L78.7964 145.988Z"
      stroke="#BBBED7" />
    <path opacity="0.3"
      d="M83.8993 127.601C89.8612 115.9 98.0694 105.488 108.055 96.9594C118.041 88.4307 129.609 81.9524 142.098 77.8943C154.588 73.8363 167.754 72.2779 180.846 73.3083C193.938 74.3386 206.698 77.9375 218.399 83.8994C230.1 89.8612 240.512 98.0694 249.041 108.055C257.569 118.041 264.048 129.609 268.106 142.098C272.164 154.588 273.722 167.754 272.692 180.846C271.661 193.938 268.063 206.698 262.101 218.399C256.139 230.1 247.931 240.512 237.945 249.041C227.959 257.569 216.391 264.048 203.902 268.106C191.412 272.164 178.246 273.722 165.154 272.692C152.062 271.661 139.302 268.063 127.601 262.101C115.9 256.139 105.488 247.931 96.9594 237.945C88.4307 227.959 81.9524 216.391 77.8943 203.902C73.8363 191.412 72.2779 178.246 73.3083 165.154C74.3386 152.062 77.9375 139.302 83.8994 127.601L83.8993 127.601Z"
      stroke="#BBBED7" />
    <path opacity="0.43"
      d="M82.1173 126.693C88.1985 114.758 96.5708 104.138 106.756 95.4386C116.942 86.7393 128.741 80.1315 141.48 75.9922C154.22 71.853 167.649 70.2635 181.003 71.3144C194.356 72.3654 207.372 76.0362 219.307 82.1173C231.242 88.1985 241.862 96.5708 250.561 106.756C259.261 116.942 265.869 128.741 270.008 141.48C274.147 154.22 275.737 167.649 274.686 181.003C273.635 194.356 269.964 207.372 263.883 219.307C257.802 231.242 249.429 241.862 239.244 250.561C229.058 259.261 217.259 265.869 204.52 270.008C191.78 274.147 178.351 275.737 164.997 274.686C151.644 273.635 138.628 269.964 126.693 263.883C114.758 257.802 104.138 249.429 95.4386 239.244C86.7393 229.058 80.1315 217.259 75.9922 204.52C71.853 191.78 70.2635 178.351 71.3144 164.997C72.3654 151.644 76.0362 138.628 82.1173 126.693L82.1173 126.693Z"
      stroke="#BBBED7" />
    <path opacity="0.31"
      d="M80.3353 125.785C86.5357 113.616 95.0722 102.788 105.457 93.9178C115.843 85.048 127.873 78.3105 140.862 74.0901C153.851 69.8697 167.544 68.249 181.16 69.3206C194.775 70.3922 208.046 74.135 220.215 80.3353C232.384 86.5357 243.212 95.0722 252.082 105.457C260.952 115.843 267.689 127.873 271.91 140.862C276.13 153.851 277.751 167.544 276.679 181.16C275.608 194.775 271.865 208.046 265.665 220.215C259.464 232.384 250.928 243.212 240.543 252.082C230.157 260.952 218.127 267.689 205.138 271.91C192.149 276.13 178.456 277.751 164.84 276.679C151.225 275.608 137.954 271.865 125.785 265.665C113.616 259.464 102.788 250.928 93.9178 240.543C85.0479 230.157 78.3105 218.127 74.0901 205.138C69.8697 192.149 68.249 178.456 69.3206 164.84C70.3922 151.225 74.135 137.954 80.3353 125.785L80.3353 125.785Z"
      stroke="#BBBED7" />
    <path opacity="0.13"
      d="M81.2013 120C95.2578 95.6535 118.41 77.888 145.565 70.6119C172.72 63.3357 201.653 67.1448 226 81.2013C250.347 95.2578 268.112 118.41 275.388 145.565C282.664 172.72 278.855 201.653 264.799 226C250.742 250.347 227.59 268.112 200.435 275.388C173.28 282.664 144.347 278.855 120 264.799C95.6535 250.742 77.888 227.59 70.6119 200.435C63.3357 173.28 67.1448 144.347 81.2013 120L81.2013 120Z"
      stroke="#BBBED7" />
    <path opacity="0.18"
      d="M86.7474 108.004C95.2828 96.6771 105.966 87.1423 118.186 79.944C130.406 72.7458 143.925 68.0249 157.969 66.051C172.014 64.0772 186.31 64.889 200.041 68.4401C213.772 71.9911 226.669 78.212 237.996 86.7474C249.323 95.2828 258.858 105.966 266.056 118.186C273.254 130.406 277.975 143.925 279.949 157.969C281.923 172.014 281.111 186.31 277.56 200.041C274.009 213.772 267.788 226.669 259.253 237.996C250.717 249.323 240.034 258.858 227.814 266.056C215.594 273.254 202.075 277.975 188.031 279.949C173.986 281.923 159.69 281.111 145.959 277.56C132.228 274.009 119.331 267.788 108.004 259.253C96.6771 250.717 87.1423 240.034 79.944 227.814C72.7457 215.594 68.0249 202.075 66.051 188.031C64.0772 173.986 64.889 159.69 68.4401 145.959C71.9911 132.228 78.212 119.331 86.7474 108.004L86.7474 108.004Z"
      stroke="#BBBED7" />
    <path opacity="0.58"
      d="M87.5139 103.775C105.874 81.1024 132.488 66.6521 161.502 63.6026C190.516 60.5531 219.553 69.1543 242.225 87.5139C264.898 105.874 279.348 132.488 282.397 161.502C285.447 190.516 276.846 219.553 258.486 242.225C240.126 264.898 213.512 279.348 184.498 282.397C155.484 285.447 126.447 276.846 103.775 258.486C81.1024 240.126 66.6521 213.512 63.6026 184.498C60.5531 155.484 69.1543 126.447 87.5139 103.775L87.5139 103.775Z"
      stroke="#BBBED7" />
    <path opacity="0.55"
      d="M87.203 101.008C106.297 78.253 133.647 64.0151 163.239 61.4262C192.83 58.8373 222.237 68.1095 244.992 87.203C267.747 106.297 281.985 133.647 284.574 163.239C287.163 192.83 277.891 222.237 258.797 244.992C239.703 267.747 212.353 281.985 182.761 284.574C153.17 287.163 123.763 277.891 101.008 258.797C78.253 239.703 64.0151 212.353 61.4262 182.761C58.8373 153.17 68.1095 123.763 87.203 101.008L87.203 101.008Z"
      stroke="#BBBED7" />
    <path opacity="0.59"
      d="M99.7222 85.6709C111.19 76.0479 124.442 68.778 138.72 64.2763C152.997 59.7745 168.022 58.129 182.936 59.4338C197.85 60.7386 212.36 64.9681 225.639 71.8808C238.919 78.7935 250.706 88.254 260.329 99.7222C269.952 111.19 277.222 124.442 281.724 138.72C286.226 152.997 287.871 168.022 286.566 182.936C285.261 197.85 281.032 212.36 274.119 225.639C267.207 238.919 257.746 250.706 246.278 260.329C234.81 269.952 221.558 277.222 207.28 281.724C193.003 286.226 177.978 287.871 163.064 286.566C148.15 285.261 133.64 281.032 120.361 274.119C107.081 267.206 95.2939 257.746 85.6709 246.278C76.0479 234.81 68.778 221.558 64.2762 207.28C59.7745 193.003 58.129 177.978 59.4338 163.064C60.7386 148.15 64.9681 133.64 71.8808 120.361C78.7935 107.081 88.2541 95.2938 99.7223 85.6709L99.7222 85.6709Z"
      stroke="#BBBED7" />
    <path opacity="0.43"
      d="M98.4367 84.1388C110.106 74.347 123.59 66.9496 138.118 62.3688C152.646 57.7881 167.935 56.1137 183.11 57.4414C198.285 58.7691 213.051 63.0728 226.563 70.1068C240.075 77.1407 252.069 86.7672 261.861 98.4367C271.653 110.106 279.05 123.59 283.631 138.118C288.212 152.646 289.886 167.935 288.559 183.11C287.231 198.285 282.927 213.051 275.893 226.563C268.859 240.075 259.233 252.069 247.563 261.861C235.894 271.653 222.41 279.05 207.882 283.631C193.354 288.212 178.065 289.886 162.89 288.559C147.714 287.231 132.949 282.927 119.437 275.893C105.925 268.859 93.9306 259.233 84.1388 247.563C74.347 235.894 66.9496 222.41 62.3688 207.882C57.7881 193.354 56.1137 178.065 57.4414 162.89C58.7691 147.714 63.0728 132.949 70.1068 119.437C77.1408 105.925 86.7673 93.9306 98.4367 84.1388L98.4367 84.1388Z"
      stroke="#BBBED7" />
    <path opacity="0.04"
      d="M105.318 76.34C118.012 67.4519 132.331 61.151 147.46 57.7971C162.589 54.4431 178.23 54.1018 193.491 56.7927C208.751 59.4835 223.332 65.1538 236.401 73.4798C249.471 81.8058 260.772 92.6244 269.66 105.318C278.548 118.012 284.849 132.331 288.203 147.46C291.557 162.589 291.898 178.23 289.207 193.491C286.516 208.751 280.846 223.332 272.52 236.401C264.194 249.471 253.376 260.772 240.682 269.66C227.988 278.548 213.669 284.849 198.54 288.203C183.411 291.557 167.77 291.898 152.509 289.207C137.249 286.516 122.668 280.846 109.599 272.52C96.5294 264.194 85.2282 253.376 76.34 240.682C67.4519 227.988 61.151 213.669 57.7971 198.54C54.4431 183.411 54.1018 167.77 56.7927 152.509C59.4835 137.249 65.1538 122.668 73.4798 109.599C81.8058 96.5294 92.6244 85.2282 105.318 76.34L105.318 76.34Z"
      stroke="#BBBED7" />
    <path opacity="0.46"
      d="M105.897 73.5155C118.961 64.7034 133.634 58.5508 149.076 55.409C164.518 52.2673 180.428 52.1979 195.897 55.2047C211.366 58.2116 226.092 64.2359 239.232 72.9337C252.373 81.6315 263.672 92.8324 272.485 105.897C281.297 118.961 287.449 133.634 290.591 149.076C293.733 164.518 293.802 180.428 290.795 195.897C287.788 211.366 281.764 226.092 273.066 239.232C264.369 252.373 253.168 263.672 240.103 272.485C227.039 281.297 212.366 287.449 196.924 290.591C181.482 293.733 165.572 293.802 150.103 290.795C134.634 287.788 119.908 281.764 106.768 273.066C93.6267 264.369 82.3276 253.168 73.5155 240.103C64.7034 227.039 58.5508 212.366 55.409 196.924C52.2673 181.482 52.1979 165.572 55.2047 150.103C58.2116 134.634 64.2359 119.908 72.9337 106.768C81.6315 93.6266 92.8324 82.3276 105.897 73.5155L105.897 73.5155Z"
      stroke="#BBBED7" />
    <path opacity="0.28"
      d="M123.378 61.5475C138.014 55.031 153.791 51.4612 169.806 51.0418C185.822 50.6224 201.764 53.3617 216.721 59.1032C231.678 64.8447 245.358 73.476 256.979 84.5043C268.601 95.5326 277.936 108.742 284.453 123.378C290.969 138.014 294.539 153.791 294.958 169.806C295.378 185.822 292.638 201.764 286.897 216.721C281.155 231.678 272.524 245.358 261.496 256.979C250.467 268.601 237.258 277.936 222.622 284.453C207.986 290.969 192.209 294.539 176.194 294.958C160.178 295.378 144.236 292.638 129.279 286.897C114.322 281.155 100.642 272.524 89.0207 261.496C77.3993 250.467 68.0639 237.258 61.5474 222.622C55.031 207.986 51.4612 192.209 51.0418 176.194C50.6224 160.178 53.3617 144.236 59.1032 129.279C64.8447 114.322 73.476 100.642 84.5043 89.0207C95.5327 77.3993 108.742 68.0639 123.378 61.5474L123.378 61.5475Z"
      stroke="#BBBED7" />
    <path opacity="0.14"
      d="M126.549 58.0292C141.647 51.9291 157.799 48.8626 174.082 49.0047C190.365 49.1468 206.461 52.4948 221.451 58.8574C236.44 65.22 250.029 74.4727 261.443 86.0872C272.857 97.7017 281.871 111.451 287.971 126.549C294.071 141.647 297.137 157.799 296.995 174.082C296.853 190.365 293.505 206.461 287.143 221.451C280.78 236.44 271.527 250.029 259.913 261.443C248.298 272.857 234.549 281.871 219.451 287.971C204.353 294.071 188.201 297.137 171.918 296.995C155.635 296.853 139.539 293.505 124.549 287.143C109.56 280.78 95.9705 271.527 84.557 259.913C73.1434 248.298 64.1293 234.549 58.0292 219.451C51.9291 204.353 48.8626 188.201 49.0047 171.918C49.1468 155.635 52.4948 139.539 58.8574 124.549C65.22 109.56 74.4727 95.9705 86.0872 84.5569C97.7018 73.1434 111.451 64.1293 126.549 58.0292L126.549 58.0292Z"
      stroke="#BBBED7" />
    <path opacity="0.18"
      d="M131.978 53.8647C163.575 42.9851 198.2 45.1028 228.235 59.7519C258.27 74.4011 281.256 100.382 292.135 131.978C303.015 163.575 300.897 198.199 286.248 228.235C271.599 258.27 245.618 281.256 214.022 292.135C182.425 303.015 147.801 300.897 117.765 286.248C87.73 271.599 64.7443 245.618 53.8647 214.022C42.9851 182.425 45.1028 147.801 59.7519 117.765C74.4011 87.73 100.382 64.7443 131.978 53.8647L131.978 53.8647Z"
      stroke="#BBBED7" />
    <path opacity="0.05"
      d="M164.071 45.3118C180.839 44.1393 197.674 46.2809 213.615 51.6146C229.556 56.9482 244.289 65.3693 256.976 76.3972C269.662 87.425 280.051 100.844 287.552 115.887C295.052 130.93 299.516 147.303 300.688 164.071C301.861 180.839 299.719 197.674 294.385 213.615C289.052 229.556 280.631 244.289 269.603 256.976C258.575 269.662 245.156 280.051 230.113 287.552C215.07 295.052 198.697 299.516 181.929 300.688C165.161 301.861 148.326 299.719 132.385 294.385C116.444 289.052 101.711 280.631 89.0244 269.603C76.3384 258.575 65.9486 245.156 58.4484 230.113C50.9482 215.07 46.4844 198.697 45.3118 181.929C44.1393 165.161 46.2809 148.326 51.6146 132.385C56.9482 116.444 65.3694 101.71 76.3972 89.0244C87.425 76.3384 100.844 65.9486 115.887 58.4484C130.93 50.9482 147.303 46.4843 164.071 45.3118L164.071 45.3118Z"
      stroke="#BBBED7" />
    <path opacity="0.32"
      d="M193.024 46.5759C209.626 49.2054 225.548 55.0793 239.88 63.8621C254.212 72.6449 266.674 84.1646 276.554 97.7635C286.434 111.362 293.539 126.774 297.463 143.119C301.387 159.464 302.054 176.421 299.424 193.024C296.795 209.626 290.921 225.548 282.138 239.88C273.355 254.212 261.835 266.674 248.236 276.554C234.638 286.434 219.226 293.539 202.881 297.463C186.536 301.387 169.579 302.054 152.976 299.424C136.374 296.795 120.452 290.921 106.12 282.138C91.7879 273.355 79.326 261.835 69.4458 248.236C59.5656 234.638 52.4607 219.226 48.5366 202.881C44.6126 186.536 43.9464 169.579 46.5759 152.976C49.2055 136.374 55.0793 120.452 63.8621 106.12C72.6449 91.7879 84.1646 79.326 97.7636 69.4458C111.362 59.5656 126.774 52.4606 143.119 48.5366C159.464 44.6126 176.421 43.9464 193.024 46.5759L193.024 46.5759Z"
      stroke="#BBBED7" />
    <path opacity="0.37"
      d="M208.833 48.036C225.243 52.7416 240.566 60.6335 253.927 71.2609C267.287 81.8884 278.424 95.0434 286.701 109.975C294.977 124.906 300.232 141.321 302.164 158.284C304.097 175.246 302.67 192.422 297.964 208.833C293.258 225.243 285.367 240.566 274.739 253.927C264.112 267.287 250.957 278.424 236.025 286.701C221.094 294.977 204.679 300.232 187.716 302.164C170.754 304.097 153.578 302.67 137.167 297.964C120.757 293.258 105.434 285.367 92.0731 274.739C78.7125 264.112 67.576 250.957 59.2994 236.025C51.0228 221.094 45.7682 204.679 43.8357 187.716C41.9031 170.754 43.3303 153.578 48.036 137.167C52.7416 120.757 60.6335 105.434 71.2609 92.0731C81.8884 78.7125 95.0434 67.576 109.975 59.2994C124.906 51.0228 141.321 45.7682 158.284 43.8357C175.246 41.9031 192.422 43.3303 208.833 48.036L208.833 48.036Z"
      stroke="#BBBED7" />
    <path opacity="0.1"
      d="M218.147 48.9606C234.436 54.8893 249.398 63.9684 262.178 75.6794C274.958 87.3904 285.307 101.504 292.633 117.214C299.959 132.925 304.118 149.924 304.874 167.242C305.63 184.56 302.968 201.858 297.039 218.147C291.111 234.436 282.032 249.398 270.321 262.178C258.61 274.958 244.496 285.307 228.786 292.633C213.075 299.959 196.076 304.118 178.758 304.874C161.44 305.63 144.142 302.968 127.853 297.039C111.564 291.111 96.6024 282.032 83.8221 270.321C71.0417 258.61 60.6932 244.496 53.3674 228.786C46.0415 213.075 41.8817 196.076 41.1256 178.758C40.3695 161.44 43.0318 144.142 48.9606 127.853C54.8893 111.564 63.9684 96.6024 75.6794 83.822C87.3905 71.0417 101.504 60.6932 117.214 53.3673C132.925 46.0415 149.924 41.8817 167.242 41.1256C184.56 40.3695 201.858 43.0318 218.147 48.9606L218.147 48.9606Z"
      stroke="#BBBED7" />
    <path opacity="0.18"
      d="M221.021 47.9002C254.2 60.6363 280.96 86.0308 295.415 118.497C309.87 150.964 310.836 187.843 298.1 221.021C285.364 254.2 259.969 280.96 227.503 295.415C195.036 309.87 158.157 310.836 124.979 298.1C91.8002 285.364 65.04 259.969 50.5849 227.503C36.1299 195.036 35.1642 158.157 47.9002 124.979C60.6362 91.8002 86.0307 65.04 118.497 50.5849C150.964 36.1299 187.843 35.1642 221.021 47.9002L221.021 47.9002Z"
      stroke="#BBBED7" />
    <path opacity="0.06"
      d="M228.316 48.7578C244.632 56.022 259.357 66.4288 271.651 79.3838C283.945 92.3388 293.567 107.588 299.967 124.262C306.367 140.936 309.421 158.706 308.953 176.56C308.486 194.414 304.506 212 297.242 228.316C289.978 244.632 279.571 259.357 266.616 271.651C253.661 283.945 238.412 293.567 221.738 299.967C205.064 306.367 187.294 309.421 169.44 308.953C151.586 308.486 134 304.506 117.684 297.242C101.368 289.978 86.6429 279.571 74.3491 266.616C62.0552 253.661 52.4334 238.412 46.0331 221.738C39.6327 205.064 36.5791 187.294 37.0466 169.44C37.5141 151.586 41.4936 134 48.7578 117.684C56.0221 101.368 66.4288 86.6429 79.3838 74.3491C92.3388 62.0552 107.588 52.4334 124.262 46.0331C140.936 39.6327 158.706 36.5791 176.56 37.0466C194.414 37.5141 212 41.4936 228.316 48.7578L228.316 48.7578Z"
      stroke="#BBBED7" />
    <path opacity="0.14"
      d="M244.075 54.7109C259.609 64.0446 273.153 76.3466 283.932 90.9144C294.712 105.482 302.517 122.031 306.901 139.615C311.285 157.199 312.163 175.474 309.484 193.398C306.806 211.321 300.623 228.541 291.289 244.075C281.955 259.609 269.653 273.153 255.086 283.932C240.518 294.712 223.969 302.517 206.385 306.901C188.801 311.285 170.526 312.163 152.602 309.484C134.679 306.806 117.459 300.623 101.925 291.289C86.3908 281.955 72.8474 269.653 62.0677 255.086C51.2881 240.518 43.4834 223.969 39.0992 206.385C34.715 188.801 33.8371 170.526 36.5158 152.602C39.1945 134.679 45.3772 117.459 54.7109 101.925C64.0447 86.3908 76.3467 72.8473 90.9145 62.0677C105.482 51.2881 122.031 43.4834 139.615 39.0992C157.199 34.715 175.474 33.8371 193.398 36.5158C211.321 39.1945 228.541 45.3772 244.075 54.7109L244.075 54.7109Z"
      stroke="#BBBED7" />
    <path opacity="0.35"
      d="M251.287 56.9347C266.529 67.2155 279.597 80.3978 289.744 95.7288C299.891 111.06 306.92 128.239 310.428 146.287C313.936 164.334 313.855 182.896 310.189 200.912C306.524 218.927 299.346 236.045 289.065 251.287C278.784 266.529 265.602 279.597 250.271 289.744C234.94 299.891 217.761 306.92 199.713 310.428C181.666 313.936 163.104 313.855 145.088 310.189C127.073 306.524 109.955 299.346 94.713 289.065C79.4711 278.784 66.4034 265.602 56.256 250.271C46.1086 234.94 39.0802 217.761 35.5722 199.713C32.0642 181.666 32.1452 163.104 35.8105 145.088C39.4759 127.072 46.654 109.955 56.9347 94.713C67.2155 79.4711 80.3978 66.4034 95.7288 56.256C111.06 46.1086 128.239 39.0802 146.287 35.5722C164.334 32.0642 182.896 32.1452 200.912 35.8105C218.928 39.4759 236.045 46.654 251.287 56.9348L251.287 56.9347Z"
      stroke="#BBBED7" />
    <path opacity="0.43"
      d="M260.424 61.1025C275.119 72.5832 287.408 86.8457 296.591 103.076C305.773 119.306 311.669 137.186 313.942 155.695C316.214 174.203 314.819 192.978 309.836 210.948C304.852 228.917 296.378 245.729 284.898 260.424C273.417 275.119 259.154 287.408 242.924 296.591C226.694 305.773 208.814 311.669 190.305 313.942C171.797 316.214 153.022 314.819 135.052 309.836C117.083 304.852 100.271 296.378 85.576 284.897C70.8814 273.417 58.592 259.154 49.4095 242.924C40.2269 226.694 34.331 208.814 32.0584 190.305C29.7859 171.797 31.1811 153.022 36.1645 135.052C41.1479 117.083 49.6218 100.271 61.1025 85.576C72.5832 70.8814 86.8458 58.592 103.076 49.4094C119.306 40.2269 137.186 34.331 155.695 32.0584C174.203 29.7859 192.978 31.1811 210.948 36.1645C228.917 41.1479 245.729 49.6219 260.424 61.1025L260.424 61.1025Z"
      stroke="#BBBED7" />
    <path opacity="0.3"
      d="M265.561 62.6896C280.048 74.8449 291.998 89.7345 300.73 106.508C309.461 123.282 314.804 141.611 316.452 160.45C318.1 179.288 316.022 198.267 310.335 216.302C304.649 234.337 295.466 251.075 283.31 265.561C271.155 280.048 256.265 291.998 239.492 300.73C222.718 309.461 204.389 314.804 185.55 316.452C166.712 318.1 147.733 316.022 129.698 310.335C111.663 304.649 94.9247 295.466 80.4386 283.31C65.9524 271.155 54.0022 256.265 45.2704 239.492C36.5386 222.718 31.1961 204.389 29.548 185.55C27.8998 166.712 29.9783 147.733 35.6648 129.698C41.3512 111.663 50.5343 94.9247 62.6896 80.4385C74.845 65.9524 89.7346 54.0022 106.508 45.2704C123.282 36.5386 141.611 31.1961 160.45 29.548C179.288 27.8998 198.267 29.9783 216.302 35.6648C234.337 41.3512 251.075 50.5343 265.561 62.6896L265.561 62.6896Z"
      stroke="#BBBED7" />
    <path opacity="0.51"
      d="M272.572 66.2224C286.594 79.2983 297.903 95.0081 305.854 112.455C313.805 129.901 318.242 148.743 318.911 167.905C319.58 187.066 316.469 206.171 309.754 224.13C303.04 242.089 292.854 258.55 279.778 272.572C266.702 286.594 250.992 297.903 233.545 305.854C216.099 313.805 197.257 318.242 178.095 318.911C158.934 319.58 139.829 316.469 121.87 309.754C103.911 303.04 87.4505 292.854 73.4282 279.778C59.406 266.702 48.0966 250.992 40.1456 233.545C32.1947 216.099 27.7581 197.257 27.0889 178.095C26.4198 158.934 29.5313 139.829 36.2459 121.87C42.9604 103.911 53.1464 87.4505 66.2224 73.4282C79.2983 59.406 95.0081 48.0966 112.455 40.1456C129.901 32.1947 148.743 27.7581 167.905 27.0889C187.066 26.4198 206.171 29.5313 224.13 36.2459C242.089 42.9604 258.55 53.1464 272.572 66.2224L272.572 66.2224Z"
      stroke="#BBBED7" />
    <path opacity="0.04"
      d="M275.809 66.5377C289.79 80.0388 300.975 96.1615 308.725 113.985C316.475 131.809 320.638 150.984 320.977 170.417C321.317 189.85 317.825 209.159 310.702 227.242C303.579 245.325 292.963 261.829 279.462 275.809C265.961 289.79 249.839 300.975 232.015 308.725C214.191 316.475 195.016 320.638 175.583 320.977C156.15 321.317 136.841 317.825 118.758 310.702C100.675 303.579 84.1714 292.963 70.1906 279.462C56.2097 265.961 45.025 249.839 37.2751 232.015C29.5252 214.191 25.3617 195.016 25.0225 175.583C24.6833 156.15 28.175 136.841 35.2982 118.758C42.4214 100.675 53.0366 84.1714 66.5377 70.1906C80.0388 56.2097 96.1615 45.025 113.985 37.2751C131.809 29.5252 150.984 25.3617 170.417 25.0225C189.85 24.6833 209.159 28.175 227.242 35.2982C245.325 42.4214 261.829 53.0366 275.809 66.5377L275.809 66.5377Z"
      stroke="#BBBED7" />
    <path opacity="0.09"
      d="M286.206 74.5911C299.13 89.4576 308.998 106.724 315.249 125.404C321.499 144.085 324.009 163.813 322.635 183.463C321.261 203.114 316.029 222.301 307.24 239.93C298.451 257.558 286.275 273.283 271.409 286.206C256.542 299.13 239.276 308.998 220.596 315.249C201.915 321.499 182.187 324.009 162.537 322.635C142.886 321.261 123.699 316.029 106.07 307.24C88.4416 298.451 72.7168 286.275 59.7935 271.409C46.8703 256.542 37.0018 239.276 30.7514 220.596C24.5011 201.915 21.9913 182.187 23.3654 162.536C24.7395 142.886 29.9705 123.699 38.7599 106.07C47.5492 88.4416 59.7247 72.7168 74.5912 59.7935C89.4577 46.8703 106.724 37.0018 125.404 30.7514C144.085 24.5011 163.813 21.9913 183.464 23.3654C203.114 24.7395 222.301 29.9705 239.93 38.7599C257.558 47.5492 273.283 59.7247 286.206 74.5912L286.206 74.5911Z"
      stroke="#BBBED7" />
    <path opacity="0.23"
      d="M294.393 81.5241C306.405 97.4656 315.161 115.617 320.158 134.942C325.156 154.267 326.299 174.388 323.521 194.154C320.743 213.921 314.099 232.947 303.968 250.146C293.837 267.345 280.417 282.38 264.476 294.393C248.534 306.405 230.383 315.161 211.058 320.158C191.733 325.156 171.612 326.299 151.846 323.521C132.079 320.743 113.053 314.099 95.8542 303.968C78.6552 293.837 63.6202 280.417 51.6074 264.476C39.5946 248.534 30.8394 230.383 25.8416 211.058C20.8437 191.733 19.7012 171.612 22.4793 151.846C25.2573 132.079 31.9014 113.053 42.0324 95.8542C52.1633 78.6552 65.5826 63.6202 81.5241 51.6074C97.4656 39.5946 115.617 30.8394 134.942 25.8416C154.267 20.8437 174.388 19.7012 194.154 22.4793C213.921 25.2573 232.947 31.9014 250.146 42.0324C267.345 52.1633 282.38 65.5826 294.393 81.5241L294.393 81.5241Z"
      stroke="#BBBED7" />
    <path opacity="0.39"
      d="M299.149 84.6692C310.749 101.235 318.972 119.924 323.35 139.668C327.727 159.412 328.172 179.825 324.66 199.742C321.149 219.658 313.748 238.688 302.882 255.744C292.016 272.801 277.897 287.55 261.331 299.149C244.765 310.749 226.076 318.972 206.332 323.35C186.588 327.727 166.175 328.172 146.258 324.66C126.342 321.149 107.312 313.748 90.2559 302.882C73.1995 292.016 58.4504 277.897 46.8506 261.331C35.2508 244.765 27.0276 226.076 22.6504 206.332C18.2732 186.588 17.8278 166.175 21.3396 146.258C24.8514 126.342 32.2516 107.312 43.1177 90.2559C53.9838 73.1995 68.103 58.4504 84.6692 46.8506C101.235 35.2508 119.924 27.0276 139.668 22.6504C159.412 18.2732 179.825 17.8278 199.742 21.3396C219.658 24.8514 238.688 32.2516 255.744 43.1177C272.801 53.9838 287.55 68.1031 299.149 84.6692L299.149 84.6692Z"
      stroke="#BBBED7" />
    <path opacity="0.26"
      d="M305.296 90.3326C316.152 107.706 323.479 127.047 326.861 147.253C330.242 167.458 329.61 188.131 325.002 208.092C320.393 228.054 311.898 246.912 300.002 263.59C288.106 280.268 273.041 294.439 255.667 305.296C238.294 316.152 218.953 323.479 198.747 326.861C178.542 330.242 157.869 329.61 137.908 325.002C117.946 320.393 99.0884 311.898 82.4103 300.002C65.7322 288.106 51.5605 273.041 40.7045 255.667C29.8484 238.294 22.5206 218.953 19.1394 198.747C15.7582 178.542 16.3899 157.869 20.9983 137.908C25.6067 117.946 34.1016 99.0884 45.998 82.4103C57.8944 65.7321 72.9594 51.5605 90.3327 40.7045C107.706 29.8484 127.047 22.5206 147.253 19.1394C167.458 15.7582 188.131 16.3899 208.092 20.9983C228.054 25.6067 246.912 34.1016 263.59 45.998C280.268 57.8944 294.44 72.9594 305.296 90.3327L305.296 90.3326Z"
      stroke="#BBBED7" />
    <path opacity="0.26"
      d="M311.19 96.4001C321.249 114.547 327.636 134.498 329.984 155.114C332.333 175.729 330.599 196.606 324.879 216.551C319.16 236.496 309.569 255.119 296.652 271.357C283.736 287.596 267.747 301.131 249.6 311.19C231.453 321.249 211.502 327.636 190.886 329.984C170.271 332.333 149.394 330.599 129.449 324.879C109.504 319.16 90.8809 309.569 74.6427 296.652C58.4044 283.736 44.8693 267.747 34.8101 249.6C24.7508 231.453 18.3645 211.502 16.0156 190.886C13.6668 170.271 15.4015 149.394 21.1207 129.449C26.8398 109.504 36.4315 90.8809 49.3479 74.6427C62.2644 58.4044 78.2528 44.8693 96.4001 34.8101C114.547 24.7508 134.498 18.3645 155.114 16.0156C175.729 13.6668 196.606 15.4015 216.551 21.1207C236.496 26.8398 255.119 36.4315 271.357 49.3479C287.596 62.2644 301.131 78.2528 311.19 96.4001L311.19 96.4001Z"
      stroke="#BBBED7" />
    <path opacity="0.55"
      d="M323.351 118.277C337.864 158.152 335.943 202.16 318.009 240.619C300.076 279.078 267.599 308.837 227.723 323.351C187.848 337.864 143.84 335.943 105.381 318.009C66.9223 300.076 37.1627 267.599 22.6492 227.723C8.13569 187.848 10.0571 143.84 27.9907 105.381C45.9244 66.9223 78.4012 37.1627 118.277 22.6492C158.152 8.13569 202.16 10.0571 240.619 27.9907C279.078 45.9244 308.837 78.4012 323.351 118.277L323.351 118.277Z"
      stroke="#BBBED7" />
    <path opacity="0.17"
      d="M330.188 133.809C335.335 154.451 336.365 175.905 333.221 196.945C330.076 217.986 322.818 238.201 311.861 256.436C300.904 274.672 286.463 290.57 269.361 303.225C252.26 315.879 232.834 325.041 212.191 330.188C191.549 335.335 170.095 336.365 149.055 333.221C128.014 330.076 107.799 322.818 89.5638 311.861C71.3283 300.904 55.4295 286.463 42.7751 269.361C30.1208 252.26 20.9587 232.833 15.8121 212.191C10.6654 191.549 9.63491 170.095 12.7794 149.055C15.924 128.014 23.1819 107.799 34.1389 89.5638C45.0959 71.3283 59.5374 55.4295 76.6388 42.7751C93.7402 30.1208 113.167 20.9587 133.809 15.8121C154.451 10.6654 175.905 9.63491 196.945 12.7794C217.986 15.924 238.201 23.1819 256.436 34.139C274.672 45.096 290.571 59.5374 303.225 76.6388C315.879 93.7402 325.041 113.167 330.188 133.809L330.188 133.809Z"
      stroke="#BBBED7" />
    <path opacity="0.57"
      d="M333.416 138.902C337.894 159.969 338.179 181.71 334.254 202.887C330.329 224.063 322.272 244.259 310.542 262.321C298.812 280.383 283.64 295.958 265.891 308.157C248.142 320.355 228.164 328.938 207.098 333.416C186.031 337.894 164.29 338.179 143.113 334.254C121.937 330.329 101.741 322.272 83.6792 310.542C65.6169 298.812 50.0419 283.64 37.8433 265.891C25.6447 248.142 17.0615 228.164 12.5838 207.097C8.10604 186.031 7.82143 164.289 11.7462 143.113C15.671 121.937 23.7283 101.741 35.4581 83.6792C47.1878 65.6169 62.3604 50.0418 80.1094 37.8433C97.8585 25.6447 117.836 17.0615 138.903 12.5838C159.969 8.10604 181.711 7.82143 202.887 11.7462C224.063 15.671 244.259 23.7283 262.321 35.4581C280.383 47.1879 295.958 62.3604 308.157 80.1095C320.355 97.8585 328.938 117.836 333.416 138.903L333.416 138.902Z"
      stroke="#BBBED7" />
    <path opacity="0.53"
      d="M338.091 155.648C340.369 177.328 338.355 199.245 332.164 220.147C325.973 241.048 315.725 260.526 302.006 277.467C288.287 294.409 271.366 308.482 252.208 318.884C233.051 329.285 212.032 335.812 190.352 338.091C168.672 340.369 146.755 338.355 125.853 332.164C104.952 325.973 85.4742 315.725 68.5328 302.006C51.5915 288.287 37.5182 271.366 27.1164 252.208C16.7146 233.051 10.188 212.032 7.90937 190.352C5.6307 168.672 7.64455 146.755 13.8359 125.853C20.0273 104.952 30.2749 85.4742 43.9938 68.5328C57.7126 51.5915 74.6339 37.5182 93.7916 27.1164C112.949 16.7146 133.968 10.188 155.648 7.90937C177.328 5.6307 199.245 7.64455 220.147 13.8359C241.048 20.0273 260.526 30.2749 277.467 43.9938C294.409 57.7126 308.482 74.6339 318.884 93.7916C329.285 112.949 335.812 133.968 338.091 155.648L338.091 155.648Z"
      stroke="#BBBED7" />
    <path opacity="0.52"
      d="M340.08 155.439C342.386 177.38 340.348 199.561 334.082 220.715C327.816 241.868 317.445 261.58 303.561 278.726C289.676 295.871 272.551 310.114 253.163 320.641C233.774 331.168 212.502 337.774 190.561 340.08C168.62 342.386 146.439 340.348 125.285 334.082C104.132 327.816 84.4196 317.445 67.2742 303.561C50.1287 289.676 35.8858 272.551 25.3587 253.163C14.8316 233.774 8.22644 212.502 5.92032 190.561C3.61421 168.62 5.65231 146.439 11.9183 125.285C18.1842 104.132 28.5554 84.4196 42.4395 67.2742C56.3236 50.1287 73.4488 35.8858 92.8373 25.3587C112.226 14.8316 133.498 8.22644 155.439 5.92032C177.38 3.61421 199.561 5.65232 220.715 11.9183C241.868 18.1842 261.58 28.5554 278.726 42.4395C295.871 56.3236 310.114 73.4488 320.641 92.8373C331.168 112.226 337.774 133.498 340.08 155.439L340.08 155.439Z"
      stroke="#BBBED7" />
    <path opacity="0.31"
      d="M342.896 167.067C344.47 212.126 328.079 255.965 297.33 288.94C266.581 321.914 223.992 341.323 178.933 342.896C133.874 344.47 90.0347 328.079 57.0603 297.33C24.0859 266.581 4.67708 223.992 3.10356 178.933C1.53004 133.874 17.9207 90.0347 48.6698 57.0603C79.419 24.0859 122.008 4.67708 167.067 3.10356C212.126 1.53004 255.965 17.9207 288.94 48.6698C321.914 79.4189 341.323 122.008 342.896 167.067L342.896 167.067Z"
      stroke="#BBBED7" />
    <path opacity="0.52"
      d="M344.974 169.998C345.368 192.582 341.31 215.023 333.032 236.038C324.754 257.054 312.417 276.233 296.726 292.481C281.036 308.729 262.299 321.728 241.585 330.734C220.871 339.741 198.586 344.58 176.002 344.974C153.418 345.368 130.977 341.31 109.962 333.032C88.9461 324.754 69.7667 312.417 53.5188 296.726C37.2708 281.036 24.2724 262.299 15.2657 241.585C6.25897 220.871 1.4204 198.586 1.0262 176.002C0.631995 153.418 4.68989 130.977 12.9682 109.962C21.2465 88.9461 33.5831 69.7667 49.2736 53.5187C64.9641 37.2707 83.7012 24.2723 104.415 15.2657C125.129 6.25897 147.414 1.42039 169.998 1.0262C192.582 0.631998 215.023 4.6899 236.038 12.9682C257.054 21.2465 276.233 33.5831 292.481 49.2736C308.729 64.9641 321.728 83.7013 330.734 104.415C339.741 125.129 344.58 147.414 344.974 169.998L344.974 169.998Z"
      stroke="#BBBED7" />
    <path d="M114.378 152.815C112.732 157.595 111.677 162.559 111.236 167.596" stroke="#BBBED7"
      stroke-linecap="round" stroke-linejoin="round" />
    <path
      d="M205.418 303.02C171.327 311.519 135.262 306.29 104.99 288.458C74.7174 270.626 52.6593 241.619 43.5659 207.682C34.4726 173.745 39.0715 137.594 56.3723 107.015C73.6731 76.4362 102.292 53.8752 136.065 44.1909"
      stroke="#BBBED7" stroke-linecap="round" stroke-linejoin="round" />
    <path
      d="M125.467 166.32C124.066 176.287 125.834 186.442 130.521 195.349C135.207 204.257 142.575 211.466 151.583 215.957C160.59 220.448 170.781 221.994 180.716 220.376C190.65 218.758 199.824 214.058 206.941 206.941"
      stroke="#BBBED7" stroke-linecap="round" stroke-linejoin="round" />
    <path
      d="M63.9813 206.33C56.1952 180.863 57.5707 153.474 67.8691 128.915C78.1675 104.356 96.7389 84.1775 120.361 71.8808C143.982 59.584 171.164 55.9452 197.188 61.5957C223.213 67.2461 246.438 81.8293 262.833 102.815"
      stroke="#BBBED7" stroke-linecap="round" stroke-linejoin="round" />
    <path
      d="M73.9732 186.917C71.9 172.165 73.1487 157.137 77.6283 142.929C82.1079 128.722 89.705 115.695 99.8646 104.8"
      stroke="#BBBED7" stroke-linecap="round" stroke-linejoin="round" />
    <path d="M159.202 304.277C164.55 304.839 169.927 305.074 175.304 304.98" stroke="#BBBED7"
      stroke-linecap="round" stroke-linejoin="round" />
    <path
      d="M125.439 215.824C133.909 225.231 144.978 231.915 157.246 235.031C169.515 238.147 182.432 237.554 194.364 233.329C206.296 229.104 216.707 221.435 224.28 211.293C231.854 201.15 236.25 188.99 236.912 176.35"
      stroke="#BBBED7" stroke-linecap="round" stroke-linejoin="round" />
    <path
      d="M120.466 85.5689C105.248 94.7128 92.6803 107.67 84.0054 123.161C75.3305 138.651 70.849 156.137 71.0039 173.89C71.1588 191.643 75.9449 209.049 84.8888 224.385C93.8327 239.721 106.625 252.458 122 261.335C137.375 270.212 154.801 274.922 172.555 274.999C190.309 275.076 207.775 270.519 223.227 261.776C238.679 253.034 251.582 240.41 260.659 225.152C269.737 209.894 274.675 192.531 274.984 174.78"
      stroke="#BBBED7" stroke-linecap="round" stroke-linejoin="round" />
    <path d="M109.884 153.703C107.066 162.92 106.301 172.642 107.642 182.185" stroke="#BBBED7"
      stroke-linecap="round" stroke-linejoin="round" />
    <path
      d="M222.167 156.07C218.415 145.174 211.149 135.832 201.511 129.513C191.873 123.194 180.409 120.256 168.92 121.16C157.431 122.065 146.568 126.76 138.037 134.509C129.506 142.257 123.791 152.621 121.79 163.97"
      stroke="#BBBED7" stroke-linecap="round" stroke-linejoin="round" />
    <path d="M139.754 215.553C137.525 213.811 135.436 211.897 133.507 209.828" stroke="#BBBED7"
      stroke-linecap="round" stroke-linejoin="round" />
    <path d="M137.758 216.52C127.787 208.446 120.891 197.193 118.224 184.643" stroke="#BBBED7"
      stroke-linecap="round" stroke-linejoin="round" />
    <path
      d="M125.489 206.267C120.533 199.19 117.221 191.094 115.795 182.573C114.369 174.051 114.865 165.318 117.247 157.013C119.628 148.708 123.835 141.039 129.561 134.568C135.286 128.097 142.384 122.987 150.338 119.611"
      stroke="#BBBED7" stroke-linecap="round" stroke-linejoin="round" />
    <path
      d="M115.937 191.541C111.8 178.809 112.04 165.059 116.618 152.479C121.197 139.899 129.852 129.211 141.205 122.117C152.558 115.023 165.958 111.929 179.272 113.329C192.586 114.728 205.049 120.54 214.68 129.84"
      stroke="#BBBED7" stroke-linecap="round" stroke-linejoin="round" />
    <path
      d="M229.375 134.975C220.264 121.467 206.605 111.68 190.886 107.394C175.167 103.109 158.431 104.61 143.725 111.624C129.019 118.639 117.321 130.7 110.759 145.613C104.197 160.526 103.208 177.3 107.971 192.881"
      stroke="#BBBED7" stroke-linecap="round" stroke-linejoin="round" />
    <path
      d="M183.968 83.6708C167.494 81.6481 150.781 84.2204 135.678 91.1035C120.574 97.9866 107.668 108.912 98.3866 122.673C89.1051 136.433 83.8097 152.492 83.0857 169.074C82.3617 185.656 86.2374 202.116 94.2842 216.633C102.331 231.15 114.236 243.159 128.682 251.332C143.128 259.505 159.553 263.524 176.141 262.945C192.729 262.366 208.833 257.211 222.674 248.05C236.515 238.889 247.553 226.079 254.568 211.036"
      stroke="#BBBED7" stroke-linecap="round" stroke-linejoin="round" />
    <path
      d="M59.9731 146.906C55.0446 168.253 56.2625 190.56 63.4857 211.244C70.7089 231.928 83.6421 250.144 100.788 263.783C117.935 277.421 138.593 285.925 160.371 288.311C182.15 290.696 204.159 286.864 223.851 277.26"
      stroke="#BBBED7" stroke-linecap="round" stroke-linejoin="round" />
    <path
      d="M223.354 124.374C214.17 114.864 202.48 108.149 189.638 105.006C176.796 101.864 163.326 102.422 150.789 106.617C138.251 110.812 127.158 118.472 118.793 128.711C110.428 138.949 105.133 151.347 103.522 164.469"
      stroke="#BBBED7" stroke-linecap="round" stroke-linejoin="round" />
    <path
      d="M245.002 216.263C234.96 232.975 219.418 245.674 201.04 252.182C182.661 258.69 162.591 258.602 144.27 251.934C125.949 245.266 110.519 232.432 100.623 215.633C90.7278 198.834 86.9842 179.116 90.0342 159.86"
      stroke="#BBBED7" stroke-linecap="round" stroke-linejoin="round" />
    <path
      d="M286.429 140.475C280.189 118.715 267.822 99.2085 250.803 84.2829C233.783 69.3573 212.83 59.6421 190.441 56.2961C168.053 52.9502 145.175 56.1146 124.535 65.4121C103.896 74.7095 86.3659 89.7476 74.0369 108.733"
      stroke="#BBBED7" stroke-linecap="round" stroke-linejoin="round" />
    <path
      d="M240.658 197.625C237.37 206.659 232.306 214.944 225.764 221.989C219.223 229.034 211.337 234.698 202.572 238.647C193.806 242.595 184.339 244.749 174.728 244.979C165.117 245.21 155.557 243.514 146.612 239.99C137.667 236.467 129.518 231.187 122.647 224.464C115.775 217.741 110.319 209.709 106.602 200.843C102.884 191.977 100.979 182.457 101 172.843C101.021 163.229 102.967 153.717 106.724 144.867"
      stroke="#BBBED7" stroke-linecap="round" stroke-linejoin="round" />
    <path
      d="M157.615 245.383C144.158 242.523 131.766 235.968 121.828 226.455C111.891 216.942 104.802 204.847 101.357 191.528C97.9126 178.209 98.249 164.194 102.329 151.056C106.408 137.918 114.069 126.177 124.452 117.151"
      stroke="#BBBED7" stroke-linecap="round" stroke-linejoin="round" />
    <path
      d="M229.565 240.412C212.602 254.646 190.896 261.961 168.778 260.899C146.66 259.836 125.755 250.474 110.234 234.68C94.7131 218.886 85.7173 197.821 85.041 175.687C84.3648 153.554 92.0579 131.979 106.586 115.267"
      stroke="#BBBED7" stroke-linecap="round" stroke-linejoin="round" />
    <path
      d="M164.223 127.845C156.564 129.334 149.409 132.747 143.432 137.762C137.455 142.777 132.851 149.231 130.055 156.515C127.259 163.799 126.362 171.675 127.448 179.402C128.534 187.129 131.567 194.452 136.263 200.683C140.958 206.915 147.162 211.849 154.29 215.023C161.418 218.197 169.236 219.505 177.009 218.825C184.782 218.145 192.254 215.499 198.723 211.136C205.192 206.773 210.444 200.836 213.986 193.884"
      stroke="#BBBED7" stroke-linecap="round" stroke-linejoin="round" />
    <path
      d="M58.3575 214.726C67.9799 241.164 86.4437 263.463 110.622 277.848C134.801 292.232 163.208 297.818 191.033 293.66C218.858 289.501 244.39 275.854 263.307 255.029C282.223 234.203 293.36 207.48 294.833 179.385"
      stroke="#BBBED7" stroke-linecap="round" stroke-linejoin="round" />
    <path d="M170.348 248.954C160.15 248.598 150.129 246.192 140.881 241.879" stroke="#BBBED7"
      stroke-linecap="round" stroke-linejoin="round" />
    <path
      d="M228.154 117.846C219.532 109.223 209.008 102.742 197.427 98.9235C185.846 95.1047 173.531 94.0543 161.471 95.8568C149.411 97.6592 137.941 102.264 127.983 109.302C118.024 116.34 109.855 125.614 104.13 136.381"
      stroke="#BBBED7" stroke-linecap="round" stroke-linejoin="round" />
    <path
      d="M193.706 250.274C179.512 254.077 164.545 253.898 150.446 249.755C136.348 245.612 123.663 237.666 113.783 226.789C103.902 215.912 97.2091 202.524 94.4367 188.093C91.6643 173.663 92.9201 158.747 98.0662 144.983C103.212 131.219 112.05 119.139 123.61 110.067C135.169 100.995 149.004 95.2817 163.597 93.5545C178.19 91.8274 192.976 94.1528 206.334 100.276C219.692 106.399 231.106 116.082 239.323 128.265"
      stroke="#BBBED7" stroke-linecap="round" stroke-linejoin="round" />
    <path
      d="M169.999 87.0524C153.255 87.6371 137.047 93.0996 123.366 102.769C109.684 112.438 99.1243 125.893 92.9841 141.481C86.8439 157.069 85.3904 174.111 88.8021 190.513C92.2138 206.916 100.342 221.965 112.189 233.811C124.035 245.658 139.084 253.786 155.487 257.198C171.889 260.61 188.931 259.156 204.519 253.016C220.107 246.876 233.562 236.316 243.231 222.634C252.9 208.953 258.363 192.745 258.948 176.001"
      stroke="#BBBED7" stroke-linecap="round" stroke-linejoin="round" />
    <path
      d="M299.424 152.976C296.647 135.445 290.255 118.683 280.653 103.755C271.051 88.8272 258.449 76.0593 243.648 66.2626C228.847 56.466 212.17 49.8547 194.677 46.8488C177.184 43.8429 159.256 44.5081 142.034 48.8021"
      stroke="#BBBED7" stroke-linecap="round" stroke-linejoin="round" />
    <path
      d="M105.019 127.146C112.797 115.615 123.38 106.252 135.773 99.9375C148.166 93.6229 161.961 90.5645 175.862 91.05C189.762 91.5354 203.311 95.5486 215.233 102.712C227.155 109.876 237.06 119.954 244.014 132"
      stroke="#BBBED7" stroke-linecap="round" stroke-linejoin="round" />
    <path
      d="M257.046 135.58C250.422 120.703 239.968 107.85 226.751 98.3352C213.534 88.8204 198.028 82.9844 181.818 81.4236C165.607 79.8627 149.273 82.6327 134.483 89.4508C119.694 96.2689 106.979 106.891 97.638 120.231"
      stroke="#BBBED7" stroke-linecap="round" stroke-linejoin="round" />
    <path d="M188.356 298.061C158.203 301.763 127.727 294.447 102.542 277.459" stroke="#BBBED7"
      stroke-linecap="round" stroke-linejoin="round" />
    <path
      d="M266.943 169.719C266.502 157.107 263.527 144.712 258.193 133.274C252.859 121.836 245.277 111.589 235.898 103.144C226.519 94.6997 215.536 88.2301 203.603 84.1213C191.671 80.0125 179.033 78.3486 166.443 79.229"
      stroke="#BBBED7" stroke-linecap="round" stroke-linejoin="round" />
    <path d="M215.084 86.7158C202.484 80.5706 188.692 77.2593 174.675 77.0146" stroke="#BBBED7"
      stroke-linecap="round" stroke-linejoin="round" />
    <path
      d="M220.95 291.68C189.833 304.252 155.023 304.1 124.017 291.257C93.0104 278.413 68.2886 253.906 55.1754 223.014C42.0621 192.121 41.6065 157.313 53.9066 126.088C66.2066 94.8623 90.2784 69.7166 120.938 56.0662"
      stroke="#BBBED7" stroke-linecap="round" stroke-linejoin="round" />
    <path d="M130.04 84.9182C151.277 74.5602 175.541 72.2238 198.364 78.3393" stroke="#BBBED7"
      stroke-linecap="round" stroke-linejoin="round" />
    <path
      d="M126.549 287.971C155.653 299.73 188.133 300.013 217.438 288.764C246.742 277.515 270.69 255.571 284.45 227.358"
      stroke="#BBBED7" stroke-linecap="round" stroke-linejoin="round" />
    <path d="M274.727 151.377C270.161 129.894 258.911 110.409 242.59 95.7129" stroke="#BBBED7"
      stroke-linecap="round" stroke-linejoin="round" />
    <path
      d="M38.3235 191.928C33.902 160.467 40.6343 128.451 57.3521 101.435C74.0699 74.4192 99.7183 54.1088 129.847 44.028C159.975 33.9472 192.682 34.7323 222.292 46.2469C251.902 57.7616 276.546 79.2792 291.948 107.066"
      stroke="#BBBED7" stroke-linecap="round" stroke-linejoin="round" />
    <path
      d="M277.39 191.407C273.571 213.063 263.112 232.995 247.461 248.442C231.81 263.89 211.743 274.087 190.039 277.622C168.335 281.156 146.068 277.853 126.325 268.171C106.581 258.488 90.3381 242.904 79.8454 223.579C69.3526 204.254 65.1299 182.143 67.7622 160.311C70.3945 138.479 79.7515 118.007 94.5369 101.729C109.322 85.4517 128.804 74.1755 150.283 69.4628C171.762 64.7501 194.176 66.8343 214.418 75.4265"
      stroke="#BBBED7" stroke-linecap="round" stroke-linejoin="round" />
    <path
      d="M301.399 193.336C297.89 215.495 288.705 236.369 274.739 253.927C260.773 271.485 242.5 285.13 221.699 293.534"
      stroke="#BBBED7" stroke-linecap="round" stroke-linejoin="round" />
    <path d="M279.67 156.105C277.7 143.662 273.567 131.659 267.459 120.641" stroke="#BBBED7"
      stroke-linecap="round" stroke-linejoin="round" />
    <path
      d="M123.373 179.093C122.339 170.676 123.464 162.133 126.641 154.27C129.818 146.406 134.943 139.48 141.534 134.143C148.125 128.805 155.965 125.232 164.318 123.76C172.67 122.287 181.259 122.963 189.278 125.724"
      stroke="#BBBED7" stroke-linecap="round" stroke-linejoin="round" />
    <path
      d="M252.127 249.412C240.857 261.083 227.144 270.117 211.972 275.865C196.8 281.613 180.544 283.934 164.37 282.661C148.195 281.388 132.502 276.553 118.416 268.502C104.33 260.451 92.1993 249.384 82.8933 236.093"
      stroke="#BBBED7" stroke-linecap="round" stroke-linejoin="round" />
    <path
      d="M284.262 217.953C277.499 234.691 267.047 249.688 253.684 261.826C240.321 273.964 224.391 282.931 207.082 288.058C189.772 293.186 171.529 294.341 153.711 291.44C135.893 288.538 118.959 281.653 104.171 271.298"
      stroke="#BBBED7" stroke-linecap="round" stroke-linejoin="round" />
    <path d="M271.89 120.419C258.263 94.7895 235.217 75.4517 207.61 66.4817" stroke="#BBBED7"
      stroke-linecap="round" stroke-linejoin="round" />
    <path
      d="M304.97 213.347C299.316 231.841 289.838 248.941 277.15 263.536C264.462 278.132 248.849 289.897 231.321 298.07C213.794 306.244 194.745 310.641 175.408 310.979C156.072 311.316 136.881 307.586 119.079 300.03C101.277 292.473 85.2625 281.26 72.0732 267.116C58.8839 252.972 48.8147 236.214 42.5184 217.928C36.2222 199.643 33.8396 180.238 35.5251 160.972C37.2107 141.707 42.9267 123.011 52.3025 106.096"
      stroke="#BBBED7" stroke-linecap="round" stroke-linejoin="round" />
    <path
      d="M129.738 39.8521C148.789 33.6621 168.946 31.6323 188.848 33.8999C208.751 36.1675 227.935 42.6797 245.105 52.9966C262.276 63.3135 277.032 77.1948 288.378 93.7031C299.724 110.211 307.395 128.962 310.873 148.689"
      stroke="#BBBED7" stroke-linecap="round" stroke-linejoin="round" />
    <path d="M281.778 264.276C273.802 273.782 264.613 282.202 254.448 289.32" stroke="#BBBED7"
      stroke-linecap="round" stroke-linejoin="round" />
    <path d="M101 48.2923C128.08 32.6578 159.513 26.2626 190.549 30.0734" stroke="#BBBED7"
      stroke-linecap="round" stroke-linejoin="round" />
    <path
      d="M195.839 317.202C166.354 321.873 136.145 317.392 109.284 304.363C82.4237 291.335 60.2026 270.386 45.6156 244.339C31.0286 218.292 24.7769 188.399 27.703 158.689C30.6292 128.98 42.5925 100.881 61.9807 78.1806C81.369 55.4799 107.25 39.2683 136.136 31.7305C165.022 24.1928 195.525 25.6913 223.533 36.0241C251.541 46.3568 275.709 65.0272 292.779 89.519C309.848 114.011 319 143.147 319 173"
      stroke="#BBBED7" stroke-linecap="round" stroke-linejoin="round" />
    <path d="M48.8767 92.3934C44.654 98.8958 40.9488 105.72 37.7953 112.803" stroke="#BBBED7"
      stroke-linecap="round" stroke-linejoin="round" />
    <path
      d="M104.901 39.349C133.126 24.968 165.178 19.8914 196.465 24.8467C227.752 29.8021 256.667 44.535 279.066 66.934"
      stroke="#BBBED7" stroke-linecap="round" stroke-linejoin="round" />
    <path
      d="M268.657 54.8738C245.118 35.8125 216.421 24.2182 186.248 21.5784C156.074 18.9386 125.8 25.3735 99.3089 40.0578C72.8178 54.7421 51.3178 77.006 37.567 103.993C23.8162 130.981 18.4417 161.461 22.133 191.524C25.8243 221.587 38.4129 249.862 58.2841 272.721C78.1553 295.58 104.403 311.981 133.66 319.821C162.916 327.66 193.848 326.58 222.486 316.719C251.125 306.858 276.164 288.666 294.393 264.476"
      stroke="#BBBED7" stroke-linecap="round" stroke-linejoin="round" />
    <path
      d="M20.1479 154.232C17.3244 177.227 19.7257 200.563 27.1728 222.502C34.6198 244.44 46.9208 264.415 63.1594 280.94C79.398 297.465 99.1557 310.112 120.961 317.941C142.766 325.77 166.056 328.578 189.097 326.156"
      stroke="#BBBED7" stroke-linecap="round" stroke-linejoin="round" />
    <path
      d="M325.591 205.434C321.236 225.921 312.801 245.321 300.788 262.478C288.774 279.635 273.429 294.197 255.667 305.296C237.905 316.394 218.09 323.803 197.404 327.079C176.717 330.356 155.583 329.433 135.26 324.366"
      stroke="#BBBED7" stroke-linecap="round" stroke-linejoin="round" />
    <path
      d="M278.723 55.5831C249.176 28.9796 210.687 14.4931 170.932 15.0135C131.177 15.534 93.0796 31.0231 64.24 58.3908C35.4003 85.7586 17.9386 122.993 15.3383 162.666C12.738 202.339 25.1902 241.535 50.2109 272.433"
      stroke="#BBBED7" stroke-linecap="round" stroke-linejoin="round" />
    <path
      d="M18.4519 131.589C12.679 153.134 11.4745 175.647 14.9156 197.685C18.3568 219.722 26.3675 240.797 38.4338 259.556C50.5 278.315 66.3551 294.344 84.9814 306.614C103.608 318.884 124.594 327.124 146.592 330.806C168.591 334.487 191.116 333.528 212.723 327.991C234.329 322.453 254.539 312.459 272.055 298.651C289.571 284.842 304.007 267.524 314.435 247.807C324.864 228.09 331.054 206.411 332.61 184.161"
      stroke="#BBBED7" stroke-linecap="round" stroke-linejoin="round" />
    <path
      d="M99.4535 317.343C70.9052 302.797 47.3113 280.112 31.6556 252.157C15.9999 224.201 8.98552 192.231 11.4994 160.29C14.0133 128.348 25.9425 97.8688 45.7787 72.7068C65.6148 47.5448 92.4668 28.8299 122.939 18.9289"
      stroke="#BBBED7" stroke-linecap="round" stroke-linejoin="round" />
    <path
      d="M74.3023 303.976C46.6429 283.133 26.2918 254.069 16.166 220.949C6.04019 187.829 6.65942 152.353 17.935 119.607"
      stroke="#BBBED7" stroke-linecap="round" stroke-linejoin="round" />
    <path
      d="M325.804 108.139C313.986 80.2979 294.787 56.2148 270.279 38.4906C245.772 20.7664 216.887 10.0747 186.746 7.57013C156.605 5.06558 126.352 10.8434 99.2555 24.2797C72.1587 37.7159 49.2477 58.2998 32.997 83.8083C16.7463 109.317 7.77356 138.78 7.0478 169.017C6.32204 199.253 13.8709 229.113 28.879 255.372C43.8871 281.631 65.7841 303.29 92.205 318.011C118.626 332.732 148.567 339.954 178.793 338.899"
      stroke="#BBBED7" stroke-linecap="round" stroke-linejoin="round" />
    <path d="M278.726 303.561C259.661 318.999 237.446 330.075 213.643 336.01" stroke="#BBBED7"
      stroke-linecap="round" stroke-linejoin="round" />
    <path
      d="M265.589 30.426C234.629 10.3207 197.966 0.839052 161.141 3.41411C124.316 5.98917 89.3301 20.4809 61.47 44.6994C33.6099 68.9178 14.39 101.547 6.71491 137.655C-0.960155 173.763 3.32672 211.389 18.9277 244.845"
      stroke="#BBBED7" stroke-linecap="round" stroke-linejoin="round" />
    <path
      d="M49.2736 292.481C71.4857 315.483 99.6699 331.837 130.662 339.708C161.653 347.579 194.226 346.655 224.721 337.039C255.217 327.424 282.429 309.498 303.301 285.275C324.174 261.051 337.88 231.489 342.882 199.907"
      stroke="#BBBED7" stroke-linecap="round" stroke-linejoin="round" />
  </g>
</svg>