<svg width="17" height="17" viewBox="0 0 17 17" fill="none" xmlns="http://www.w3.org/2000/svg">
<path d="M16.2999 2.12793H0.698453C0.513212 2.12793 0.335558 2.20152 0.204572 2.3325C0.0735869 2.46349 1.66302e-08 2.64114 1.66302e-08 2.82638C1.66302e-08 3.01162 0.0735869 3.18928 0.204572 3.32026C0.335558 3.45125 0.513212 3.52484 0.698453 3.52484H16.2999C16.3916 3.52484 16.4824 3.50677 16.5672 3.47167C16.6519 3.43657 16.7289 3.38512 16.7938 3.32026C16.8586 3.25541 16.9101 3.17841 16.9452 3.09367C16.9803 3.00893 16.9984 2.91811 16.9984 2.82638C16.9984 2.73466 16.9803 2.64384 16.9452 2.5591C16.9101 2.47436 16.8586 2.39736 16.7938 2.3325C16.7289 2.26764 16.6519 2.2162 16.5672 2.1811C16.4824 2.146 16.3916 2.12793 16.2999 2.12793ZM16.2999 7.80136H0.698453C0.513212 7.80136 0.335558 7.87495 0.204572 8.00594C0.0735868 8.13692 0 8.31458 0 8.49982C0 8.68506 0.0735868 8.86271 0.204572 8.9937C0.335558 9.12468 0.513212 9.19827 0.698453 9.19827H16.2999C16.3916 9.19827 16.4824 9.18021 16.5672 9.14511C16.6519 9.11 16.7289 9.05856 16.7938 8.9937C16.8586 8.92884 16.9101 8.85184 16.9452 8.7671C16.9803 8.68236 16.9984 8.59154 16.9984 8.49982C16.9984 8.4081 16.9803 8.31727 16.9452 8.23253C16.9101 8.14779 16.8586 8.07079 16.7938 8.00594C16.7289 7.94108 16.6519 7.88963 16.5672 7.85453C16.4824 7.81943 16.3916 7.80136 16.2999 7.80136ZM16.2999 13.4748H0.698453C0.513212 13.4748 0.335558 13.5484 0.204572 13.6794C0.0735868 13.8104 6.2226e-09 13.988 6.22259e-09 14.1733C6.22259e-09 14.3585 0.0735868 14.5361 0.204572 14.6671C0.335558 14.7981 0.513212 14.8717 0.698453 14.8717H16.2999C16.4851 14.8717 16.6628 14.7981 16.7938 14.6671C16.9248 14.5361 16.9984 14.3585 16.9984 14.1733C16.9984 13.988 16.9248 13.8104 16.7938 13.6794C16.6628 13.5484 16.4851 13.4748 16.2999 13.4748Z" fill="#333333"/>
</svg>
